<svg xmlns="http://www.w3.org/2000/svg" viewBox="0 0 512 512">
  <defs>
    <radialGradient id="bg" cx="50%" cy="40%" r="70%">
      <stop offset="0%" stop-color="#121823"/>
      <stop offset="68%" stop-color="#07090d"/>
      <stop offset="100%" stop-color="#050608"/>
    </radialGradient>
    <linearGradient id="card" x1="0" y1="0" x2="1" y2="1">
      <stop offset="0%" stop-color="#12171f"/>
      <stop offset="100%" stop-color="#0c1016"/>
    </linearGradient>
    <linearGradient id="red" x1="0" y1="0" x2="1" y2="1">
      <stop offset="0%" stop-color="#b95447"/>
      <stop offset="100%" stop-color="#6b302d"/>
    </linearGradient>
    <filter id="shadow" x="-30%" y="-30%" width="160%" height="160%">
      <feDropShadow dx="0" dy="8" stdDeviation="8" flood-color="#000" flood-opacity=".7"/>
      <feDropShadow dx="0" dy="0" stdDeviation="5" flood-color="#9e3c3c" flood-opacity=".45"/>
    </filter>
  </defs>
  <rect width="512" height="512" fill="url(#bg)"/>
  <circle cx="256" cy="256" r="226" fill="none" stroke="#8b3c3c" stroke-width="3" opacity=".35"/>
  <circle cx="256" cy="256" r="190" fill="none" stroke="#8b3c3c" stroke-width="2" opacity=".22"/>
  <rect x="42" y="42" width="428" height="428" rx="90" fill="url(#card)" stroke="#9e3c3c" stroke-width="6" filter="url(#shadow)"/>
  <path d="M256 72 L294 154 L256 236 L218 154 Z" fill="#9e3c3c"/>
  <path d="M256 98 L276 154 L256 210 L236 154 Z" fill="#07090d"/>
  <path d="M256 120 L266 154 L256 188 L246 154 Z" fill="#f19a2a"/>
  <text x="256" y="337" text-anchor="middle" font-family="Georgia, 'Times New Roman', serif" font-size="124" font-weight="700" fill="#f3ddb3">DnD</text>
  <rect x="175" y="374" width="162" height="66" rx="18" fill="url(#red)" stroke="#d47541" stroke-width="3"/>
  <text x="256" y="421" text-anchor="middle" font-family="Arial, sans-serif" font-size="42" font-weight="800" fill="#fff5e0">PDF</text>
</svg>
